<svg width="32" height="32" viewBox="0 0 32 32" fill="none" xmlns="http://www.w3.org/2000/svg">
<path d="M16 0C7.16339 0 0 7.16339 0 16C0 24.8366 7.16339 32 16 32C24.8366 32 32 24.8366 32 16C32 7.16339 24.8366 0 16 0Z" fill="black"/>
<path d="M18.274 7.83C19.242 7.83 20.188 8.23333 21.112 9.04C22.036 9.832 22.7767 10.8587 23.334 12.12C23.8913 13.3813 24.17 14.6427 24.17 15.904C24.17 17.1507 23.8913 18.3973 23.334 19.644C22.7913 20.876 22.0213 21.91 21.024 22.746C20.0413 23.582 18.9853 24 17.856 24H8.88V23.01H10.442C10.8527 22.9513 11.1533 22.7387 11.344 22.372V9.81C11.3 9.56067 11.1827 9.348 10.992 9.172C10.816 8.98133 10.5887 8.864 10.31 8.82H8.88V7.83H18.274ZM16.954 22.9C17.878 22.9 18.714 22.5553 19.462 21.866C20.21 21.1767 20.7747 20.3113 21.156 19.27C21.552 18.214 21.75 17.0627 21.75 15.816C21.75 14.5547 21.552 13.396 21.156 12.34C20.76 11.2693 20.1807 10.4187 19.418 9.788C18.67 9.15733 17.8047 8.842 16.822 8.842H14.336C13.94 8.90067 13.6393 9.12067 13.434 9.502V21.998C13.5073 22.4233 13.7347 22.724 14.116 22.9H16.954Z" fill="white"/>
<line x1="16" y1="8" x2="16" y2="23" stroke="white" stroke-width="2"/>
</svg>
